<mxfile host="app.diagrams.net" modified="2024-06-13T11:15:56.346Z" agent="Mozilla/5.0 (Windows NT 10.0; Win64; x64) AppleWebKit/537.36 (KHTML, like Gecko) Chrome/125.0.0.0 Safari/537.36" version="24.5.4" etag="WhDen5fuVaMv-2jCchQy" type="github">
  <diagram name="Page-1" id="A8sCRAz4zm4Ux3HJtBXk">
    <mxGraphModel>
      <root>
        <mxCell id="0" />
        <mxCell id="1" parent="0" />
      </root>
    </mxGraphModel>
  </diagram>
</mxfile>
